<svg id="404error" width="1280" height="410" viewBox="0 0 1280 410" fill="none" xmlns="http://www.w3.org/2000/svg" style="max-width:100%;max-height:100%" class="ErrorPage_image__m4Sgs"><path fill-rule="evenodd" clip-rule="evenodd" d="M505.78 210.544C505.78 259.322 545.322 298.864 594.1 298.864C642.878 298.864 682.42 259.322 682.42 210.544C682.42 161.767 642.878 122.224 594.1 122.224C545.322 122.224 505.78 161.767 505.78 210.544ZM594.1 63.3445C512.803 63.3445 446.9 129.248 446.9 210.544C446.9 291.841 512.803 357.744 594.1 357.744C675.396 357.744 741.3 291.841 741.3 210.544C741.3 129.248 675.396 63.3445 594.1 63.3445Z" fill="#F8ECFF" stroke-dasharray="0,0,0,0,0,1480.024658203125"><animate attributeType="XML" attributeName="stroke-dasharray" repeatCount="indefinite" dur="2.6315789473684212s" values="0,0,0,0,0,1480.024658203125; 0,0,0,740.0123291015625,740.0123291015625,0; 0,0,370.00616455078125,1110.0184936523438,0,0; 0,740.0123291015625,0,740.0123291015625,0,0" keyTimes="0; 0.5; 0.75; 1" begin="0.4247036843804979s"></animate></path><path fill-rule="evenodd" clip-rule="evenodd" d="M512.18 210.545C512.18 255.788 548.857 292.465 594.1 292.465C639.343 292.465 676.02 255.788 676.02 210.545C676.02 165.301 639.343 128.625 594.1 128.625C548.857 128.625 512.18 165.301 512.18 210.545ZM440.5 210.545C440.5 125.714 509.269 56.9446 594.1 56.9446C678.931 56.9446 747.7 125.714 747.7 210.545C747.7 295.376 678.931 364.145 594.1 364.145C509.269 364.145 440.5 295.376 440.5 210.545ZM594.1 298.865C545.322 298.865 505.78 259.322 505.78 210.545C505.78 161.767 545.322 122.225 594.1 122.225C642.878 122.225 682.42 161.767 682.42 210.545C682.42 259.322 642.878 298.865 594.1 298.865ZM446.9 210.545C446.9 129.248 512.804 63.3446 594.1 63.3446C675.396 63.3446 741.3 129.248 741.3 210.545C741.3 291.841 675.396 357.745 594.1 357.745C512.804 357.745 446.9 291.841 446.9 210.545Z" fill="black" stroke-dasharray="0,0,0,0,0,2960.051513671875"><animate attributeType="XML" attributeName="stroke-dasharray" repeatCount="indefinite" dur="2.6315789473684212s" values="0,0,0,0,0,2960.051513671875; 0,0,0,1480.0257568359375,1480.0257568359375,0; 0,0,740.0128784179688,2220.0386352539062,0,0; 0,1480.0257568359375,0,1480.0257568359375,0,0" keyTimes="0; 0.5; 0.75; 1" begin="0.9402672685009764s"></animate></path><rect x="476.9" y="93.3445" width="234.4" height="234.4" rx="117.2" stroke="#E9CCFF" stroke-width="60" stroke-linecap="round" stroke-dasharray="0,0,0,0,0,736.0917358398438"><animate attributeType="XML" attributeName="stroke-dasharray" repeatCount="indefinite" dur="2.6315789473684212s" values="0,0,0,0,0,736.0917358398438; 0,0,0,368.0458679199219,368.0458679199219,0; 0,0,184.02293395996094,552.0688018798828,0,0; 0,368.0458679199219,0,368.0458679199219,0,0" keyTimes="0; 0.5; 0.75; 1" begin="0.43067540794147297s"></animate></rect><rect x="476.9" y="93.3445" width="234.4" height="234.4" rx="117.2" stroke="#CD96F8" stroke-width="60" stroke-linecap="round" stroke-dasharray="0,0,0,0,0,736.0917358398438"><animate attributeType="XML" attributeName="stroke-dasharray" repeatCount="indefinite" dur="2.6315789473684212s" values="0,0,0,0,0,736.0917358398438; 0,0,0,368.0458679199219,368.0458679199219,0; 0,0,184.02293395996094,552.0688018798828,0,0; 0,368.0458679199219,0,368.0458679199219,0,0" keyTimes="0; 0.5; 0.75; 1" begin="0.1618100493830663s"></animate></rect><rect x="476.9" y="93.3445" width="234.4" height="234.4" rx="117.2" stroke="#C47CFD" stroke-width="60" stroke-linecap="round" stroke-dasharray="0,0,0,0,0,736.0917358398438"><animate attributeType="XML" attributeName="stroke-dasharray" repeatCount="indefinite" dur="2.6315789473684212s" values="0,0,0,0,0,736.0917358398438; 0,0,0,368.0458679199219,368.0458679199219,0; 0,0,184.02293395996094,552.0688018798828,0,0; 0,368.0458679199219,0,368.0458679199219,0,0" keyTimes="0; 0.5; 0.75; 1" begin="1.190448069047083s"></animate></rect><rect x="476.9" y="93.3445" width="234.4" height="234.4" rx="117.2" stroke="#B363FD" stroke-width="60" stroke-linecap="round" stroke-dasharray="0,0,0,0,0,736.0917358398438"><animate attributeType="XML" attributeName="stroke-dasharray" repeatCount="indefinite" dur="2.6315789473684212s" values="0,0,0,0,0,736.0917358398438; 0,0,0,368.0458679199219,368.0458679199219,0; 0,0,184.02293395996094,552.0688018798828,0,0; 0,368.0458679199219,0,368.0458679199219,0,0" keyTimes="0; 0.5; 0.75; 1" begin="0.9129190581393881s"></animate></rect><path d="M308.147 358.4V307.482H172.8V253.517L302.49 60.7234H373.427V246.554H409.984V307.482H373.427V358.4H308.147ZM308.147 158.643H303.795L245.043 246.554H308.147V158.643Z" fill="#C47CFD" stroke-dasharray="0,0,0,0,0,1240.69580078125"><animate attributeType="XML" attributeName="stroke-dasharray" repeatCount="indefinite" dur="2.6315789473684212s" values="0,0,0,0,0,1240.69580078125; 0,0,0,620.347900390625,620.347900390625,0; 0,0,310.1739501953125,930.5218505859375,0,0; 0,620.347900390625,0,620.347900390625,0,0" keyTimes="0; 0.5; 0.75; 1" begin="0.640686655912609s"></animate></path><path d="M909.747 358.4V307.482H774.4V253.517L904.09 60.7236H975.027V246.554H1011.58V307.482H975.027V358.4H909.747ZM909.747 158.644H905.395L846.643 246.554H909.747V158.644Z" fill="#C47CFD" stroke-dasharray="0,0,0,0,0,1240.685546875"><animate attributeType="XML" attributeName="stroke-dasharray" repeatCount="indefinite" dur="2.6315789473684212s" values="0,0,0,0,0,1240.685546875; 0,0,0,620.3427734375,620.3427734375,0; 0,0,310.17138671875,930.51416015625,0,0; 0,620.3427734375,0,620.3427734375,0,0" keyTimes="0; 0.5; 0.75; 1" begin="0.012051711188844716s"></animate></path><path fill-rule="evenodd" clip-rule="evenodd" d="M301.747 364.8V313.882H166.4V251.565L299.082 54.3235H379.827V240.154H416.384V313.882H379.827V364.8H301.747ZM373.427 307.482H409.984V246.554H373.427V60.7235H302.49L172.8 253.517V307.482H308.147V358.4H373.427V307.482ZM903.347 364.801V313.882H768V251.565L900.681 54.3237H981.427V240.154H1017.98V313.882H981.427V364.801H903.347ZM975.027 307.482H1011.58V246.554H975.027V60.7237H904.09L774.4 253.517V307.482H909.747V358.401H975.027V307.482ZM308.147 246.554H245.043L303.795 158.643H308.147V246.554ZM257.018 240.154H301.747V173.226L257.018 240.154ZM909.747 246.554H846.643L905.395 158.644H909.747V246.554ZM858.618 240.154H903.347V173.226L858.618 240.154Z" fill="black" stroke-dasharray="0,0,0,0,0,4923.11474609375"><animate attributeType="XML" attributeName="stroke-dasharray" repeatCount="indefinite" dur="2.6315789473684212s" values="0,0,0,0,0,4923.11474609375; 0,0,0,2461.557373046875,2461.557373046875,0; 0,0,1230.7786865234375,3692.3360595703125,0,0; 0,2461.557373046875,0,2461.557373046875,0,0" keyTimes="0; 0.5; 0.75; 1" begin="0.621170750416241s"></animate></path><rect x="990.592" y="201.6" width="166.4" height="166.4" rx="83.2" fill="black" stroke-dasharray="0,0,0,0,0,521.9164428710938"><animate attributeType="XML" attributeName="stroke-dasharray" repeatCount="indefinite" dur="2.6315789473684212s" values="0,0,0,0,0,521.9164428710938; 0,0,0,260.9582214355469,260.9582214355469,0; 0,0,130.47911071777344,391.4373321533203,0,0; 0,260.9582214355469,0,260.9582214355469,0,0" keyTimes="0; 0.5; 0.75; 1" begin="0.23726577341587313s"></animate></rect><rect x="968.192" y="256" width="153.6" height="153.6" rx="76.8" transform="rotate(-30 968.192 256)" fill="#D4A4F9" stroke-dasharray="0,0,0,0,0,481.76910400390625"><animate attributeType="XML" attributeName="stroke-dasharray" repeatCount="indefinite" dur="2.6315789473684212s" values="0,0,0,0,0,481.76910400390625; 0,0,0,240.88455200195312,240.88455200195312,0; 0,0,120.44227600097656,361.3268280029297,0,0; 0,240.88455200195312,0,240.88455200195312,0,0" keyTimes="0; 0.5; 0.75; 1" begin="1.2436870573215588s"></animate></rect><path fill-rule="evenodd" clip-rule="evenodd" d="M1031.4 276.538C1036.14 274.673 1041.27 274.11 1046.18 275.061C1046.39 275.104 1046.62 275.156 1046.83 275.205L1046.86 275.214C1047.33 275.317 1047.78 275.438 1048.24 275.568C1048.7 275.699 1049.15 275.849 1049.59 275.998L1049.59 275.999L1049.59 275.999L1049.82 276.08L1049.82 276.08C1050.18 276.207 1050.55 276.335 1050.9 276.487C1056.2 278.636 1060.62 282.446 1063.53 287.493C1066.53 292.685 1067.62 298.609 1066.69 304.435C1066.68 304.494 1066.68 304.55 1066.67 304.606C1066.66 304.663 1066.65 304.719 1066.64 304.778C1066.5 305.562 1066.34 306.338 1066.13 307.108C1065.7 308.695 1065.12 310.203 1064.43 311.648L1064.43 311.648L1064.43 311.648C1064.22 312.064 1064.02 312.481 1063.79 312.875C1063.75 312.955 1063.7 313.035 1063.66 313.116L1063.66 313.117C1063.61 313.197 1063.56 313.277 1063.52 313.356C1061.83 316.199 1059.61 318.739 1056.97 320.849C1055.21 322.251 1054.1 324.255 1053.85 326.496C1053.6 328.737 1054.23 330.948 1055.64 332.708C1057.05 334.468 1059.06 335.583 1061.29 335.839C1063.39 336.076 1065.45 335.525 1067.15 334.303L1067.15 334.312L1067.3 334.192C1067.33 334.167 1067.37 334.144 1067.4 334.121C1067.44 334.098 1067.47 334.075 1067.5 334.049C1068.09 333.577 1068.66 333.092 1069.23 332.598C1075.61 327.072 1080.22 319.797 1082.45 311.481C1088.54 288.757 1075.04 265.308 1052.34 259.167L1052.21 259.133L1052.2 259.129L1052.19 259.125C1043 256.67 1033.47 257.344 1024.81 260.954L1024.84 260.999C1022.93 261.862 1021.42 263.37 1020.58 265.302C1019.68 267.368 1019.64 269.665 1020.46 271.762C1021.29 273.859 1022.88 275.516 1024.95 276.418C1027.02 277.321 1029.3 277.365 1031.4 276.538ZM1087.12 255.121C1093 251.73 1095.1 244.327 1091.8 238.624C1088.41 232.75 1080.88 230.731 1075 234.122C1069.3 237.415 1067.41 244.874 1070.8 250.748C1074.1 256.451 1081.42 258.414 1087.12 255.121ZM1098.9 277.591C1106.29 273.323 1111.36 275.812 1114.3 278.65C1120.49 284.612 1123.5 299.421 1118.11 309.576L1117.08 311.525L1109.76 298.852C1104.2 301.346 1097.6 299.261 1094.52 293.917C1091.22 288.213 1093.2 280.884 1098.9 277.591Z" fill="white" stroke-dasharray="0,0,0,0,0,428.5549621582031"><animate attributeType="XML" attributeName="stroke-dasharray" repeatCount="indefinite" dur="2.6315789473684212s" values="0,0,0,0,0,428.5549621582031; 0,0,0,214.27748107910156,214.27748107910156,0; 0,0,107.13874053955078,321.41622161865234,0,0; 0,214.27748107910156,0,214.27748107910156,0,0" keyTimes="0; 0.5; 0.75; 1" begin="0.1953716907586848s"></animate></path></svg>